<svg width="97" height="188" viewBox="0 0 97 188" fill="none" xmlns="http://www.w3.org/2000/svg">
<circle cx="13.7998" cy="90.5988" r="9.7489" transform="rotate(-45 13.7998 90.5988)" fill="#ECECEC"/>
<circle cx="39.3927" cy="64.9966" r="9.7489" transform="rotate(-45 39.3927 64.9966)" fill="#ECECEC"/>
<circle cx="42.347" cy="119.16" r="9.7489" transform="rotate(-45 42.347 119.16)" fill="#ECECEC"/>
<circle cx="67.9505" cy="93.5554" r="9.7489" transform="rotate(-45 67.9505 93.5554)" fill="#ECECEC"/>
<circle cx="67.9533" cy="144.76" r="9.7489" transform="rotate(-45 67.9533 144.76)" fill="#ECECEC"/>
<circle cx="93.5553" cy="119.16" r="9.7489" transform="rotate(-45 93.5553 119.16)" fill="#ECECEC"/>
<circle cx="96.5091" cy="173.323" r="9.7489" transform="rotate(-45 96.5091 173.323)" fill="#ECECEC"/>
<circle cx="64.9965" cy="39.3922" r="9.7489" transform="rotate(-45 64.9965 39.3922)" fill="#ECECEC"/>
<circle cx="90.6007" cy="13.7874" r="9.7489" transform="rotate(-45 90.6007 13.7874)" fill="#ECECEC"/>
<circle cx="93.5553" cy="67.9507" r="9.7489" transform="rotate(-45 93.5553 67.9507)" fill="#ECECEC"/>
</svg>
