<svg width="62" height="119" viewBox="0 0 62 119" fill="none" xmlns="http://www.w3.org/2000/svg">
<circle cx="2.06768" cy="75.2333" r="6.15511" transform="rotate(-45 2.06768 75.2333)" fill="#ECECEC"/>
<circle cx="3.93255" cy="109.43" r="6.15511" transform="rotate(-45 3.93255 109.43)" fill="#ECECEC"/>
<circle cx="20.0986" cy="93.2645" r="6.15511" transform="rotate(-45 20.0986 93.2645)" fill="#ECECEC"/>
<circle cx="0.202204" cy="8.70486" r="6.15511" transform="rotate(-45 0.202204 8.70486)" fill="#ECECEC"/>
<circle cx="2.06768" cy="42.9017" r="6.15511" transform="rotate(-45 2.06768 42.9017)" fill="#ECECEC"/>
<circle cx="18.233" cy="26.736" r="6.15511" transform="rotate(-45 18.233 26.736)" fill="#ECECEC"/>
<circle cx="18.2367" cy="59.065" r="6.15511" transform="rotate(-45 18.2367 59.065)" fill="#ECECEC"/>
<circle cx="34.3995" cy="42.9016" r="6.15511" transform="rotate(-45 34.3995 42.9016)" fill="#ECECEC"/>
<circle cx="36.2647" cy="77.0984" r="6.15511" transform="rotate(-45 36.2647 77.0984)" fill="#ECECEC"/>
<circle cx="52.4302" cy="60.9328" r="6.15511" transform="rotate(-45 52.4302 60.9328)" fill="#ECECEC"/>
</svg>
